<?xml version="1.0" encoding="iso-8859-1"?>
<!-- Generator: Adobe Illustrator 19.0.0, SVG Export Plug-In . SVG Version: 6.00 Build 0)  -->
<svg version="1.1" id="Capa_1" xmlns="http://www.w3.org/2000/svg" xmlns:xlink="http://www.w3.org/1999/xlink" x="0px" y="0px"
	 viewBox="0 0 384.97 384.97" style="enable-background:new 0 0 384.97 384.97;" xml:space="preserve" width="48px" height="48px">
<g>
	<path d="M24.375,372.939v-36.091v-89.686v-90.769h0.301C27.852,82.805,88.352,24.061,162.723,24.061
		s134.872,58.744,138.048,132.333h0.301v90.769v89.686v7.675l-39.628-39.628c-4.68-4.68-12.331-4.68-17.011,0
		c-4.68,4.68-4.68,12.331,0,17.011l59.55,59.55c2.418,2.418,5.618,3.525,8.806,3.453c3.188,0.084,6.388-1.035,8.806-3.453
		l59.55-59.55c4.68-4.68,4.68-12.331,0-17.011c-4.68-4.68-12.331-4.68-17.011,0l-39.002,39.002V156.394
		c0-0.71-0.289-1.311-0.409-1.985C320.525,68.452,249.715,0,162.723,0C73.025,0,0.314,72.711,0.314,162.409
		c0,1.624,0.192,3.2,0.241,4.824c-0.036,0.409-0.241,0.77-0.241,1.191v204.515c0,6.617,5.414,12.03,12.03,12.03
		S24.375,379.556,24.375,372.939z"/>
	<g>
	</g>
	<g>
	</g>
	<g>
	</g>
	<g>
	</g>
	<g>
	</g>
	<g>
	</g>
</g>
<g>
</g>
<g>
</g>
<g>
</g>
<g>
</g>
<g>
</g>
<g>
</g>
<g>
</g>
<g>
</g>
<g>
</g>
<g>
</g>
<g>
</g>
<g>
</g>
<g>
</g>
<g>
</g>
<g>
</g>
</svg>
