<?xml version="1.0" encoding="iso-8859-1"?>
<!-- Generator: Adobe Illustrator 16.0.0, SVG Export Plug-In . SVG Version: 6.00 Build 0)  -->
<!DOCTYPE svg PUBLIC "-//W3C//DTD SVG 1.1//EN" "http://www.w3.org/Graphics/SVG/1.1/DTD/svg11.dtd">
<svg xmlns="http://www.w3.org/2000/svg" xmlns:xlink="http://www.w3.org/1999/xlink" version="1.1" id="Capa_1" x="0px" y="0px" width="43px" height="43px" viewBox="0 0 416.979 416.979" style="enable-background:new 0 0 416.979 416.979;" xml:space="preserve">
<g>
	<path d="M416.979,208.489C416.979,93.343,323.633,0,208.489,0C93.344,0,0,93.343,0,208.489   c0,115.146,93.343,208.489,208.489,208.489S416.979,323.635,416.979,208.489z M219.451,289.738l-118.209-68.259   c-4.641-2.681-7.499-7.632-7.499-12.99c0-5.359,2.858-10.31,7.499-12.99l118.209-68.259c4.642-2.68,10.359-2.68,15-0.001   c4.643,2.68,7.502,7.631,7.502,12.991v33.259h66.281c8.285,0,15,6.716,15,15v40c0,8.284-6.715,15-15,15h-66.281v33.259   c0,5.359-2.859,10.311-7.502,12.991C229.811,292.418,224.093,292.418,219.451,289.738z" fill="#fa6000"/>
</g>
<g>
</g>
<g>
</g>
<g>
</g>
<g>
</g>
<g>
</g>
<g>
</g>
<g>
</g>
<g>
</g>
<g>
</g>
<g>
</g>
<g>
</g>
<g>
</g>
<g>
</g>
<g>
</g>
<g>
</g>
</svg>
