<?xml version="1.0" encoding="iso-8859-1"?>
<!-- Generator: Adobe Illustrator 19.0.0, SVG Export Plug-In . SVG Version: 6.00 Build 0)  -->
<svg version="1.1" id="Layer_1" xmlns="http://www.w3.org/2000/svg" xmlns:xlink="http://www.w3.org/1999/xlink" x="0px" y="0px"
	 viewBox="0 0 425.453 425.453" style="enable-background:new 0 0 425.453 425.453;" xml:space="preserve" width="48px" height="48px">
<g>
	<g>
		<g>
			<path d="M420.052,149.743L273.238,2.928c-3.905-3.904-10.236-3.905-14.142,0L5.344,260.138c-1.841,1.871-2.872,4.39-2.872,7.014
				v148.301c0,5.523,4.477,10,10,10H155.83c2.664,0,5.218-1.063,7.096-2.953l257.127-258.614
				C423.958,159.98,423.958,153.648,420.052,149.743z M151.668,405.453H22.471V271.247l201.83-205.131l132.64,132.644
				L151.668,405.453z M371.059,184.593L238.387,51.917l27.779-27.776l132.672,132.673L371.059,184.593z"/>
			<path d="M80.939,307.326c-9.307,0-18.027,3.632-24.521,10.192c-6.604,6.602-10.226,15.359-10.2,24.658
				c0.025,9.229,3.647,17.887,10.199,24.388c6.525,6.577,15.231,10.199,24.521,10.199c9.29,0,17.993-3.622,24.514-10.2
				c6.553-6.5,10.174-15.159,10.199-24.387c0.025-9.298-3.597-18.056-10.16-24.618C98.966,310.96,90.247,307.326,80.939,307.326z
				 M91.349,352.382c-0.027,0.027-0.055,0.055-0.081,0.082c-2.739,2.772-6.407,4.299-10.329,4.299c-3.924,0-7.597-1.528-10.34-4.302
				c-0.026-0.026-0.053-0.052-0.078-0.079c-2.765-2.733-4.292-6.377-4.303-10.261c-0.011-3.936,1.531-7.65,4.377-10.497
				c2.744-2.771,6.418-4.298,10.344-4.298c3.924,0,7.593,1.525,10.372,4.334c2.81,2.81,4.352,6.525,4.341,10.461
				C95.641,346.005,94.114,349.649,91.349,352.382z"/>
			
				<rect x="154.826" y="106.264" transform="matrix(-0.7074 -0.7068 0.7068 -0.7074 143.4409 449.8246)" width="20.001" height="177.916"/>
			
				<rect x="103.758" y="213.21" transform="matrix(-0.7071 0.7071 -0.7071 -0.7071 486.8797 244.7479)" width="177.985" height="20"/>
			
				<rect x="189.779" y="212.792" transform="matrix(-0.7071 -0.7071 0.7071 -0.7071 148.6074 605.8492)" width="20.001" height="118.71"/>
			
				<rect x="245.732" y="193.977" transform="matrix(-0.7071 0.7072 -0.7072 -0.7071 601.674 158.7075)" width="44.464" height="20"/>
		</g>
	</g>
</g>
<g>
</g>
<g>
</g>
<g>
</g>
<g>
</g>
<g>
</g>
<g>
</g>
<g>
</g>
<g>
</g>
<g>
</g>
<g>
</g>
<g>
</g>
<g>
</g>
<g>
</g>
<g>
</g>
<g>
</g>
</svg>
